HIERARCHY
ROOT Hips
{
	OFFSET 0.000000 88.474243 0.000000
	CHANNELS 6 Xposition Yposition Zposition Zrotation Yrotation Xrotation 
	JOINT Hips_Spine
	{
		OFFSET 0.000000 0.000000 0.000000
		CHANNELS 3 Zrotation Yrotation Xrotation
		JOINT Spine
		{
			OFFSET 0.005100 8.711998 -0.691000
			CHANNELS 3 Zrotation Yrotation Xrotation
			JOINT Spine1
			{
				OFFSET -0.009200 8.660301 -1.275000
				CHANNELS 3 Zrotation Yrotation Xrotation
				JOINT Spine2
				{
					OFFSET 0.006300 9.852501 -1.857000
					CHANNELS 3 Zrotation Yrotation Xrotation
					JOINT Spine2_Neck
					{
						OFFSET 0.000000 0.000000 0.000000
						CHANNELS 3 Zrotation Yrotation Xrotation
						JOINT Neck
						{
							OFFSET 0.016300 11.420799 -0.263300
							CHANNELS 3 Zrotation Yrotation Xrotation
							End Site #name: Head
							{
								OFFSET -0.019200 9.262405 2.362500
							}
						}
					}
					JOINT Spine2_LeftShoulder
					{
						OFFSET 0.000000 0.000000 0.000000
						CHANNELS 3 Zrotation Yrotation Xrotation
						JOINT LeftShoulder
						{
							OFFSET 5.616900 6.732201 -0.345700
							CHANNELS 3 Zrotation Yrotation Xrotation
							JOINT LeftArm
							{
								OFFSET 10.664888 -0.183372 -2.440700
								CHANNELS 3 Zrotation Yrotation Xrotation
								JOINT LeftForeArm
								{
									OFFSET 27.459126 0.000000 0.000000
									CHANNELS 3 Zrotation Yrotation Xrotation
									End Site #name: LeftHand
									{
										OFFSET 21.306858 0.000000 0.000000
									}
								}
							}
						}
					}
					JOINT Spine2_RightShoulder
					{
						OFFSET 0.000000 0.000000 0.000000
						CHANNELS 3 Zrotation Yrotation Xrotation
						JOINT RightShoulder
						{
							OFFSET -5.580300 6.737503 -0.344400
							CHANNELS 3 Zrotation Yrotation Xrotation
							JOINT RightArm
							{
								OFFSET -10.679335 -0.188484 -2.383900
								CHANNELS 3 Zrotation Yrotation Xrotation
								JOINT RightForeArm
								{
									OFFSET -27.503529 0.000000 0.000000
									CHANNELS 3 Zrotation Yrotation Xrotation
									End Site #name: RightHand
									{
										OFFSET -21.306808 0.000000 0.000000
									}
								}
							}
						}
					}
				}
			}
		}
	}
	JOINT Hips_LeftUpLeg
	{
		OFFSET 0.000000 0.000000 0.000000
		CHANNELS 3 Zrotation Yrotation Xrotation
		JOINT LeftUpLeg
		{
			OFFSET 6.857700 -6.739601 0.312100
			CHANNELS 3 Zrotation Yrotation Xrotation
			JOINT LeftLeg
			{
				OFFSET -0.367590 -34.731552 -4.572400
				CHANNELS 3 Zrotation Yrotation Xrotation
				End Site #name: LeftFoot
				{
					OFFSET 0.367590 -34.656704 -6.067400
				}
			}
		}
	}
	JOINT Hips_RightUpLeg
	{
		OFFSET 0.000000 0.000000 0.000000
		CHANNELS 3 Zrotation Yrotation Xrotation
		JOINT RightUpLeg
		{
			OFFSET -6.876100 -6.733299 0.301000
			CHANNELS 3 Zrotation Yrotation Xrotation
			JOINT RightLeg
			{
				OFFSET 0.347353 -34.795158 -4.515900
				CHANNELS 3 Zrotation Yrotation Xrotation
				End Site #name: RightFoot
				{
					OFFSET -0.347353 -34.589367 -6.070300
				}
			}
		}
	}
}
MOTION
Frames: 17
Frame Time: 0.041667
0.484403 0.702596 -1.277113 1.962031 -5.003679 -7.128829 -0.000000 0.000000 -0.000000 -2.674703 -0.281426 -3.297711 2.249636 -1.879329 -6.119957 0.000000 0.000000 0.000000 2.725473 -1.382922 -5.951593 4.025398 -3.974689 -5.280035 1.233502 -1.656825 -6.730709 -17.960613 -0.549785 9.675367 -53.726106 11.755185 -2.541842 -0.471884 -20.448938 7.956086 1.671122 -1.702085 -3.300510 3.711976 5.840444 1.517991 66.763692 -1.273545 -7.723640 0.325791 48.140120 -0.707967 -0.000000 -0.000000 -0.000000 -9.906621 26.124544 -1.070914 -2.068570 1.181721 18.331527 0.000000 0.000000 0.000000 -6.847377 7.397080 -19.359598 5.070537 -3.582172 16.097244 
0.255104 0.707634 -1.352648 1.688520 -5.304024 -7.231798 -0.000000 0.000000 -0.000000 -1.775684 -0.334779 -4.088653 2.441757 -1.905986 -6.042738 0.000000 0.000000 0.000000 2.888172 -1.327062 -5.903123 3.996171 -3.951824 -5.007096 1.427651 -1.599563 -6.604188 -17.373995 -0.627318 9.785449 -54.685012 12.710421 -3.284287 -0.490565 -21.062681 7.821960 1.844902 -1.649481 -3.303171 3.819951 5.977161 1.564754 66.575379 -1.396967 -7.627473 0.334622 48.262033 -0.703764 -0.000000 -0.000000 -0.000000 -9.231062 26.240364 -0.694732 -2.194896 0.978314 18.495136 0.000000 0.000000 0.000000 -6.075954 7.777316 -19.604123 5.156918 -4.024705 16.094903 
0.046501 0.709335 -1.427139 1.371830 -5.674690 -7.253295 -0.000000 0.000000 -0.000000 -0.877081 -0.390185 -4.812332 2.633225 -1.916427 -5.953748 0.000000 0.000000 0.000000 3.034128 -1.271378 -5.851077 3.997445 -3.971409 -4.694003 1.633279 -1.549478 -6.474627 -16.802452 -0.724915 9.869713 -55.640024 13.615384 -3.963600 -0.521188 -21.714854 7.698639 2.030773 -1.609946 -3.304222 3.977710 6.102782 1.597371 66.401294 -1.497108 -7.494055 0.344857 48.351732 -0.703591 -0.000000 -0.000000 -0.000000 -8.582306 26.397877 -0.133217 -2.333824 0.677784 18.297776 0.000000 0.000000 0.000000 -5.271010 8.158842 -19.827773 5.291065 -4.345131 16.106176 
-0.131519 0.708608 -1.499710 1.078396 -6.467223 -7.197982 -0.000000 -0.000000 -0.000000 -0.022014 -0.400752 -5.463136 2.830819 -1.919294 -5.841733 0.000000 0.000000 0.000000 3.175920 -1.214296 -5.778055 3.998809 -4.013997 -4.307746 1.839977 -1.494245 -6.325186 -16.207955 -0.860217 9.922100 -56.516989 14.383607 -4.689940 -0.558823 -22.360923 7.562623 2.217857 -1.567555 -3.291307 4.172035 6.240866 1.626463 66.201358 -1.595970 -7.385099 0.352901 48.501859 -0.702445 -0.000000 -0.000000 -0.000000 -7.903893 26.616757 0.485825 -2.492450 0.349189 18.023661 0.000000 -0.000000 0.000000 -4.461159 8.594225 -20.110474 5.473579 -4.580899 16.159089 
-0.270030 0.707100 -1.570466 0.869457 -7.764975 -7.142175 -0.000000 -0.000000 -0.000000 0.649827 -0.418209 -6.101194 3.014742 -1.919768 -5.713541 0.000000 0.000000 0.000000 3.300641 -1.155594 -5.678881 3.987232 -4.077698 -3.848176 2.034571 -1.439779 -6.161505 -15.616307 -1.006556 9.946765 -57.273277 14.900681 -5.502915 -0.602532 -22.959769 7.426022 2.385837 -1.528560 -3.263350 4.412255 6.407597 1.662623 65.937561 -1.797932 -7.377322 0.365749 48.871446 -0.701620 -0.000000 -0.000000 -0.000000 -7.254646 26.825730 1.144413 -2.639388 0.089547 17.711675 0.000000 -0.000000 0.000000 -3.718297 9.059033 -20.376699 5.648852 -4.814048 16.269138 
-0.361561 0.705563 -1.641793 0.774817 -9.732427 -7.088452 -0.000000 -0.000000 0.000000 1.284860 -0.416463 -6.586914 3.179373 -1.929286 -5.576636 0.000000 0.000000 0.000000 3.409527 -1.101006 -5.572096 3.941472 -4.103515 -3.303173 2.211428 -1.391031 -5.997748 -15.051839 -1.154432 9.944629 -57.987610 15.283127 -6.194110 -0.645948 -23.551553 7.278938 2.532478 -1.487486 -3.222598 4.708763 6.604801 1.707187 65.592233 -2.051747 -7.396735 0.385536 49.429038 -0.690959 -0.000000 -0.000000 -0.000000 -6.668334 26.995253 1.845214 -2.813180 -0.088013 17.345087 0.000000 -0.000000 0.000000 -3.107754 9.557602 -20.693146 5.821038 -4.974889 16.537863 
-0.400131 0.704079 -1.715752 0.799432 -12.266562 -7.035089 -0.000000 -0.000000 0.000000 1.767934 -0.480619 -6.767572 3.319470 -1.946992 -5.436054 0.000000 0.000000 0.000000 3.501151 -1.050512 -5.454444 3.824584 -4.132750 -2.638280 2.372480 -1.351655 -5.832000 -14.531711 -1.295670 9.913288 -58.610754 15.528692 -6.763489 -0.700152 -24.095866 7.156869 2.665170 -1.451803 -3.176860 5.047475 6.800308 1.752838 65.248801 -2.313368 -7.423937 0.411433 50.025222 -0.675997 -0.000000 -0.000000 -0.000000 -6.193157 27.100596 2.545760 -3.016904 -0.176471 16.972140 0.000000 -0.000000 0.000000 -2.650450 10.087183 -21.130790 5.988916 -5.022545 17.062576 
-0.380538 0.702077 -1.792938 0.948203 -15.274555 -7.028255 -0.000000 -0.000000 0.000000 2.070233 -0.598674 -6.830220 3.442087 -1.971041 -5.299188 0.000000 0.000000 0.000000 3.580088 -1.007510 -5.327382 3.622314 -4.145952 -1.860759 2.516726 -1.324399 -5.670890 -14.066980 -1.476818 9.819938 -59.146133 15.629238 -7.185274 -0.752552 -24.534964 7.053701 2.781539 -1.427885 -3.126764 5.338452 6.974912 1.789357 64.931209 -2.570039 -7.428669 0.440633 50.579779 -0.659166 -0.000000 -0.000000 -0.000000 -5.904043 27.164723 3.253601 -3.217871 -0.261506 16.553257 0.000000 -0.000000 0.000000 -2.336157 10.630373 -21.689894 6.155481 -4.973677 17.796506 
-0.309084 0.701645 -1.869235 1.188052 -18.357966 -7.052335 -0.000000 -0.000000 0.000000 2.307819 -0.712545 -6.889704 3.546085 -1.998768 -5.160182 0.000000 0.000000 0.000000 3.646783 -0.975246 -5.197284 3.347549 -4.106253 -1.015597 2.639938 -1.308938 -5.518553 -13.673756 -1.649467 9.721131 -59.602820 15.646046 -7.475789 -0.806457 -24.894299 6.962584 2.881512 -1.415760 -3.073282 5.553972 7.129112 1.818471 64.694816 -2.771884 -7.406663 0.473605 51.044430 -0.639363 -0.000000 -0.000000 -0.000000 -5.811283 27.074115 3.915885 -3.422979 -0.372955 16.157179 0.000000 -0.000000 0.000000 -2.137751 11.195262 -22.350399 6.326683 -4.840768 18.752450 
-0.188147 0.703383 -1.944358 1.483836 -21.616773 -7.115269 -0.000000 -0.000000 0.000000 2.520624 -0.818474 -6.896010 3.626236 -2.023379 -5.009253 0.000000 0.000000 0.000000 3.701223 -0.954016 -5.052886 3.059485 -3.982283 -0.191628 2.730754 -1.300960 -5.374482 -13.390611 -1.792338 9.626413 -60.001784 15.609766 -7.667080 -0.863393 -25.142844 6.891049 2.966494 -1.414049 -3.013982 5.686679 7.246113 1.837681 64.555612 -2.968424 -7.368504 0.506689 51.365716 -0.618977 -0.000000 -0.000000 -0.000000 -5.873542 26.826252 4.490206 -3.639874 -0.540905 15.939027 0.000000 -0.000000 0.000000 -2.029412 11.782728 -23.084789 6.482133 -4.670829 19.880371 
-0.020923 0.707664 -2.017660 1.828033 -25.099918 -7.211299 -0.000000 -0.000000 0.000000 2.739786 -0.942604 -6.882292 3.694240 -2.042873 -4.860677 0.000000 0.000000 0.000000 3.740109 -0.936800 -4.906026 2.815662 -3.682251 0.466665 2.807963 -1.298036 -5.238302 -13.252978 -1.895572 9.527558 -60.340205 15.547925 -7.849409 -0.938991 -25.359065 6.852052 3.031195 -1.417427 -2.955184 5.737363 7.335788 1.848596 64.507970 -3.101541 -7.297477 0.539466 51.563937 -0.598675 -0.000000 -0.000000 -0.000000 -6.040687 26.396398 4.889324 -3.901127 -0.791209 16.115626 0.000000 -0.000000 0.000000 -1.998573 12.357013 -23.884268 6.633097 -4.488687 21.110701 
0.190459 0.714344 -2.089288 2.183247 -28.520457 -7.293226 -0.000000 -0.000000 0.000000 3.011609 -1.135426 -6.886651 3.756420 -2.062905 -4.720066 0.000000 0.000000 0.000000 3.775048 -0.922819 -4.750046 2.666859 -3.271011 0.816698 2.875693 -1.299129 -5.109131 -13.238181 -1.963573 9.421538 -60.587183 15.415567 -7.893761 -1.019891 -25.522819 6.805447 3.082723 -1.424757 -2.895549 5.715613 7.397773 1.858354 64.532258 -3.212896 -7.244210 0.566455 51.668412 -0.578914 -0.000000 -0.000000 -0.000000 -6.232807 25.781887 5.130523 -4.168129 -1.129140 16.632468 0.000000 -0.000000 0.000000 -2.029799 12.873238 -24.730563 6.782569 -4.307811 22.461123 
0.444161 0.723912 -2.158647 2.492555 -31.599493 -7.350027 -0.000000 -0.000000 0.000000 3.341076 -1.364215 -6.915943 3.821135 -2.079548 -4.598124 0.000000 0.000000 0.000000 3.806859 -0.912507 -4.614225 2.508364 -2.912522 1.138980 2.939465 -1.298277 -5.000314 -13.315895 -1.974004 9.324395 -60.697094 15.185345 -7.808875 -1.097862 -25.647462 6.719436 3.129643 -1.431817 -2.842574 5.647497 7.446918 1.870509 64.608637 -3.344071 -7.215672 0.589139 51.741188 -0.564206 0.000000 -0.000000 -0.000000 -6.442887 25.088034 5.203878 -4.380264 -1.484908 17.435254 0.000000 -0.000000 0.000000 -2.084828 13.296717 -25.537674 6.932323 -4.128415 23.871919 
0.734700 0.738636 -2.225505 2.708508 -33.842745 -7.460330 -0.000000 -0.000000 0.000000 3.656333 -1.604535 -6.990211 3.890524 -2.089849 -4.493829 0.000000 0.000000 0.000000 3.844889 -0.904880 -4.498624 2.399116 -2.554344 1.421655 3.013221 -1.297402 -4.901956 -13.495939 -1.913515 9.252483 -60.712657 15.004540 -7.737901 -1.166642 -25.828555 6.588580 3.184977 -1.441944 -2.797825 5.547366 7.488895 1.886747 64.726727 -3.500978 -7.276191 0.606640 51.870022 -0.543797 0.000000 -0.000000 -0.000000 -6.729180 24.213333 5.042363 -4.545764 -1.808624 18.524074 0.000000 -0.000000 0.000000 -2.126476 13.614556 -26.220843 7.102654 -3.858549 25.251669 
1.057203 0.759248 -2.290345 2.869005 -35.732131 -7.558841 -0.000000 -0.000000 0.000000 3.911858 -1.841990 -7.075724 3.972807 -2.095546 -4.407534 0.000000 0.000000 0.000000 3.892356 -0.896689 -4.389989 2.322161 -2.248749 1.682129 3.098990 -1.293153 -4.811200 -13.729720 -1.807923 9.214099 -60.633180 14.862024 -7.680512 -1.224169 -26.010684 6.429004 3.253267 -1.451936 -2.759474 5.433218 7.537545 1.908094 64.862569 -3.702875 -7.414365 0.625329 52.071971 -0.517806 0.000000 -0.000000 -0.000000 -7.094814 23.236075 4.703675 -4.707521 -2.156542 19.778287 0.000000 -0.000000 0.000000 -2.225578 13.814108 -26.787011 7.350198 -3.405258 26.555138 
1.406256 0.785920 -2.354610 2.977050 -37.147685 -7.644751 -0.000000 -0.000000 0.000000 4.103020 -2.082245 -7.215688 4.051745 -2.094954 -4.329587 0.000000 0.000000 0.000000 3.947480 -0.883895 -4.280047 2.244390 -1.966636 1.901013 3.195713 -1.286665 -4.720602 -13.968244 -1.707899 9.188112 -60.521529 14.824908 -7.701779 -1.265498 -26.179178 6.221391 3.331291 -1.458444 -2.727001 5.313872 7.598650 1.935406 64.975624 -3.934447 -7.590919 0.643320 52.274914 -0.481396 0.000000 -0.000000 -0.000000 -7.501895 22.225480 4.284439 -4.842973 -2.518509 21.014303 0.000000 -0.000000 0.000000 -2.393212 13.892475 -27.244599 7.545762 -3.009653 27.723639 
1.775789 0.818170 -2.419372 3.007139 -37.986405 -7.684565 -0.000000 -0.000000 0.000000 4.262530 -2.319833 -7.391422 4.131545 -2.088151 -4.257890 0.000000 0.000000 0.000000 3.996662 -0.860468 -4.176158 2.115494 -1.719733 2.065568 3.294597 -1.279554 -4.638116 -14.157738 -1.648534 9.170059 -60.448704 14.938986 -7.881720 -1.288088 -26.374862 5.996177 3.409581 -1.459409 -2.696772 5.263568 7.673687 1.975007 65.043557 -4.169356 -7.856684 0.664129 52.425291 -0.446312 0.000000 -0.000000 -0.000000 -7.910798 21.310360 3.784162 -4.916433 -2.796382 22.166032 0.000000 -0.000000 0.000000 -2.627628 13.772845 -27.533104 7.712400 -2.655723 28.641385 
